<?xml version="1.0" encoding="UTF-8" standalone="no"?>
<!-- Created with Inkscape (http://www.inkscape.org/) -->

<svg
   width="108.80466mm"
   height="50.002647mm"
   viewBox="0 0 108.80467 50.002648"
   version="1.1"
   id="svg1"
   inkscape:export-filename="seikan.png"
   inkscape:export-xdpi="96"
   inkscape:export-ydpi="96"
   inkscape:version="1.4 (1:1.4+202410161351+e7c3feb100)"
   sodipodi:docname="seikan-only.svg"
   xmlns:inkscape="http://www.inkscape.org/namespaces/inkscape"
   xmlns:sodipodi="http://sodipodi.sourceforge.net/DTD/sodipodi-0.dtd"
   xmlns="http://www.w3.org/2000/svg"
   xmlns:svg="http://www.w3.org/2000/svg">
  <sodipodi:namedview
     id="namedview1"
     pagecolor="#505050"
     bordercolor="#ffffff"
     borderopacity="1"
     inkscape:showpageshadow="0"
     inkscape:pageopacity="0"
     inkscape:pagecheckerboard="1"
     inkscape:deskcolor="#505050"
     inkscape:document-units="mm"
     inkscape:zoom="1.4699074"
     inkscape:cx="118.03465"
     inkscape:cy="90.141732"
     inkscape:window-width="1920"
     inkscape:window-height="1011"
     inkscape:window-x="0"
     inkscape:window-y="32"
     inkscape:window-maximized="1"
     inkscape:current-layer="layer1"
     showguides="false" />
  <defs
     id="defs1">
    <rect
       x="168.71811"
       y="285.05197"
       width="168.71811"
       height="237.42992"
       id="rect1" />
  </defs>
  <g
     inkscape:label="Layer 1"
     inkscape:groupmode="layer"
     id="layer1"
     transform="translate(-58.87025,-74.719802)">
    <path
       style="font-weight:bold;font-size:55.5585px;line-height:0.5;font-family:'Rounded Mplus 1c';-inkscape-font-specification:'Rounded Mplus 1c Medium';letter-spacing:0px;fill:#ffffff;stroke-width:56.2457;stroke-linecap:round;stroke-linejoin:round"
       d="m 80.861436,96.109824 q -0.888936,0 -1.555638,-0.611143 -0.666702,-0.666702 -0.666702,-1.611197 0,-0.944494 0.666702,-1.555638 0.666702,-0.666702 1.555638,-0.666702 h 19.667704 q 0.44447,0 0.44447,-0.500026 v -1.388963 q 0,-0.500026 -0.44447,-0.500026 H 84.639413 q -0.888936,0 -1.500079,-0.555585 -0.611144,-0.611144 -0.611144,-1.50008 0,-0.888936 0.611144,-1.500079 0.611143,-0.611143 1.500079,-0.611143 h 15.889727 q 0.44447,0 0.44447,-0.444468 v -1.444521 q 0,-0.444468 -0.44447,-0.444468 H 82.861541 q -0.944494,0 -1.611196,-0.666702 -0.666702,-0.666702 -0.666702,-1.611197 0,-0.944494 0.666702,-1.611196 0.666702,-0.722261 1.611196,-0.722261 h 17.667599 q 0.44447,0 0.44447,-0.444468 0,-1.222287 0.88894,-2.111223 0.88893,-0.888936 2.16678,-0.888936 h 0.33335 q 1.27785,0 2.16678,0.888936 0.88894,0.888936 0.88894,2.111223 0,0.444468 0.44447,0.444468 h 17.6676 q 0.94449,0 1.61119,0.722261 0.66671,0.666702 0.66671,1.611196 0,0.944495 -0.66671,1.611197 -0.6667,0.666702 -1.61119,0.666702 h -17.6676 q -0.44447,0 -0.44447,0.444468 v 1.444521 q 0,0.444468 0.44447,0.444468 h 15.88973 q 0.88893,0 1.50008,0.611143 0.61114,0.611143 0.61114,1.500079 0,0.888936 -0.61114,1.50008 -0.61115,0.555585 -1.50008,0.555585 h -15.88973 q -0.44447,0 -0.44447,0.500026 v 1.388963 q 0,0.500026 0.44447,0.500026 h 19.6677 q 0.88894,0 1.55564,0.666702 0.6667,0.611144 0.6667,1.555638 0,0.944495 -0.6667,1.611197 -0.6667,0.611143 -1.55564,0.611143 z m 34.890734,23.334566 q 1.66676,0 1.94455,-0.16667 0.27779,-0.22224 0.27779,-1.38896 v -0.88894 q 0,-0.50003 -0.50002,-0.50003 H 90.917524 q -0.500027,0 -0.500027,0.50003 v 4.50024 q 0,1.27784 -0.888936,2.16678 -0.888936,0.88894 -2.111223,0.88894 -1.277845,0 -2.22234,-0.9445 -0.888936,-0.88894 -0.888936,-2.11122 v -20.16774 q 0,-1.27784 0.944495,-2.222337 0.944494,-0.944494 2.22234,-0.944494 h 33.446213 q 1.27785,0 2.22234,0.944494 0.9445,0.944497 0.9445,2.222337 v 16.55644 q 0,4.50023 -1.22229,5.50029 -1.22229,1.05561 -6.44479,1.05561 -1.22228,0 -5.66696,-0.16668 -1.05561,-0.0556 -1.83343,-0.83337 -0.72226,-0.72227 -0.77782,-1.77788 -0.0556,-1.00005 0.6667,-1.72231 0.77782,-0.72226 1.77787,-0.6667 3.66686,0.16667 5.16694,0.16667 z M 90.417497,103.27687 v 1.55564 q 0,0.44447 0.500027,0.44447 h 26.556966 q 0.50002,0 0.50002,-0.44447 v -1.55564 q 0,-0.50003 -0.50002,-0.50003 H 90.917524 q -0.500027,0 -0.500027,0.50003 z m 27.056993,8.94492 q 0.50002,0 0.50002,-0.50003 v -1.66675 q 0,-0.50003 -0.50002,-0.50003 H 90.917524 q -0.500027,0 -0.500027,0.50003 v 1.66675 q 0,0.50003 0.500027,0.50003 z M 137.8089,81.942407 q -1.05562,0 -1.77788,-0.72226 -0.72226,-0.722261 -0.72226,-1.777872 0,-1.055612 0.72226,-1.777872 0.72226,-0.722261 1.77788,-0.722261 h 43.89121 q 1.05561,0 1.77787,0.722261 0.72226,0.72226 0.72226,1.777872 0,1.055611 -0.72226,1.777872 -0.72226,0.72226 -1.77787,0.72226 h -23.39013 q -0.44447,0 -0.55558,0.500027 -0.2778,2.22234 -0.77782,5.8892 -0.0556,0.166676 0.11112,0.277793 0.16667,0.111117 0.33335,0.111117 h 4.72247 q 1.27784,0 2.16678,0.944494 0.94449,0.944495 0.88894,2.22234 -0.0556,1.611197 -0.16668,3.389069 0,0.166675 0.11112,0.277792 0.16667,0.05556 0.27779,-0.05556 3.27795,-2.333457 6.33367,-5.278058 1.00005,-0.944494 2.22234,-1.000053 1.27784,-0.111117 2.2779,0.777819 l 1.05561,0.944495 q 0.0556,0.05556 0.11112,0 0.11111,-0.05556 0.11111,-0.111117 0,-0.888936 0.6667,-1.555638 0.66671,-0.666702 1.55564,-0.666702 h 0.61115 q 1.16672,0 2.0001,0.833377 0.83338,0.833378 0.83338,2.000106 v 30.446062 q 0,1.16673 -0.83338,2.0001 -0.83338,0.83338 -2.0001,0.83338 h -0.44447 q -1.00005,0 -1.72232,-0.72226 -0.6667,-0.6667 -0.6667,-1.66675 0,-0.38891 -0.38891,-0.38891 h -34.77962 q -0.38891,0 -0.38891,0.38891 0,1.00005 -0.72226,1.66675 -0.6667,0.72226 -1.66675,0.72226 h -0.44447 q -1.16673,0 -2.00011,-0.83338 -0.83337,-0.83337 -0.83337,-2.0001 V 91.44291 q 0,-1.166728 0.83337,-2.000106 0.83338,-0.833377 2.00011,-0.833377 h 0.72226 q 0.88894,0 1.50008,0.611143 0.61114,0.611144 0.61114,1.50008 0,0.222234 0.22224,0.111117 l 0.50002,-0.38891 q 1.05562,-0.833377 2.38902,-0.72226 1.38896,0.05556 2.2779,1.055611 1.05561,1.166729 2.77792,3.33351 0.11112,0.111117 0.22224,0.111117 0.11111,-0.05556 0.16667,-0.166675 0.9445,-5.722526 1.6112,-11.611726 0.11112,-0.500027 -0.38891,-0.500027 z m 27.11254,15.445263 q -0.16667,3.44463 -0.33335,6.00032 0,0.11111 0.11112,0.16667 0.16668,0.0556 0.22223,0 l 0.55559,-0.50002 q 1.05561,-0.9445 2.38901,-0.9445 1.33341,0 2.38902,0.88894 3.88909,3.27795 6.94481,7.2226 0.11112,0.11112 0.22224,0.11112 0.11111,-0.0556 0.11111,-0.16668 V 92.165171 q 0,-0.111117 -0.11111,-0.166676 -0.11112,-0.05556 -0.16668,0.05556 -2.44457,2.889042 -6.72258,6.222552 -1.11117,0.833377 -2.44457,0.72226 -1.33341,-0.166675 -2.2779,-1.166728 l -0.55559,-0.555585 q -0.0556,-0.111117 -0.22223,-0.05556 -0.11112,0.05556 -0.11112,0.166676 z m -8.72268,-3.72242 q -0.16668,0.944495 -0.88894,1.555638 -0.72226,0.555585 -1.66675,0.500027 l -1.83343,-0.111117 q -0.11112,0 -0.16668,0.166675 -0.0556,0.111117 0,0.222234 0,0.05556 0.0556,0.111117 0.0556,0.05556 0.11112,0.111117 0.6667,0.888936 0.44447,1.944548 -0.16668,1.055611 -1.05562,1.666755 -0.88893,0.611146 -1.94454,0.500026 -1.05561,-0.16668 -1.72232,-1.055611 -2.50013,-3.277952 -5.2225,-6.166994 -0.11111,-0.111117 -0.22223,-0.05556 -0.11112,0.05556 -0.11112,0.166675 v 16.11197 q 0,0.16667 0.11112,0.27779 0.16668,0.0556 0.27779,-0.0556 5.27806,-3.33351 9.05604,-7.33372 0.72226,-0.77782 1.72231,-0.83338 1.05561,-0.11112 1.83343,0.61115 0.77782,0.77781 0.83338,1.83343 0.11112,1.05561 -0.61114,1.83343 -3.38907,3.72242 -7.94487,6.88925 -1.11117,0.77782 -2.44457,0.61114 -1.27785,-0.22223 -2.11123,-1.3334 l -0.44446,-0.61114 q -0.0556,-0.11112 -0.16668,-0.0556 -0.11112,0.0556 -0.11112,0.16667 v 5.27806 q 0,0.44447 0.44447,0.44447 h 34.61295 q 0.50002,0 0.50002,-0.44447 v -4.94471 q 0,-0.11111 -0.16667,-0.16667 -0.11112,-0.0556 -0.22224,0 l -1.05561,0.83338 q -1.00005,0.77781 -2.33346,0.6667 -1.27784,-0.11112 -2.11122,-1.11117 -3.27795,-3.77798 -6.77813,-6.66702 -0.44447,-0.27779 -0.44447,0.16667 -0.2778,3.66686 -0.6667,5.72253 -0.33336,2.0001 -1.11117,2.9446 -0.72227,0.94449 -1.44453,1.16673 -0.72226,0.16667 -2.27789,0.16667 -2.38902,0 -5.2225,-0.22223 -0.9445,-0.11112 -1.6112,-0.77782 -0.6667,-0.6667 -0.72226,-1.66675 -0.0556,-0.9445 0.61114,-1.55564 0.66671,-0.61115 1.55564,-0.55559 3.00016,0.22224 3.55575,0.22224 0.72226,0 1.00005,-0.77782 0.50002,-1.55564 1.3334,-16.223086 0,-0.500027 -0.44447,-0.500027 h -2.38901 q -0.27779,0 -0.38891,0.333351 z"
       id="text1"
       transform="skewX(-11.793305)"
       aria-label="青函" />
  </g>
</svg>
