<?xml version="1.0" encoding="UTF-8" standalone="no"?>
<!-- Created with Inkscape (http://www.inkscape.org/) -->

<svg
   width="111.64988mm"
   height="51.093315mm"
   viewBox="0 0 111.64988 51.093315"
   version="1.1"
   id="svg1"
   inkscape:export-filename="seikan.png"
   inkscape:export-xdpi="96"
   inkscape:export-ydpi="96"
   inkscape:version="1.4 (1:1.4+202410161351+e7c3feb100)"
   sodipodi:docname="seikan-only.svg"
   xmlns:inkscape="http://www.inkscape.org/namespaces/inkscape"
   xmlns:sodipodi="http://sodipodi.sourceforge.net/DTD/sodipodi-0.dtd"
   xmlns="http://www.w3.org/2000/svg"
   xmlns:svg="http://www.w3.org/2000/svg">
  <sodipodi:namedview
     id="namedview1"
     pagecolor="#505050"
     bordercolor="#ffffff"
     borderopacity="1"
     inkscape:showpageshadow="0"
     inkscape:pageopacity="0"
     inkscape:pagecheckerboard="1"
     inkscape:deskcolor="#505050"
     inkscape:document-units="mm"
     inkscape:zoom="1.0393815"
     inkscape:cx="76.487796"
     inkscape:cy="44.738145"
     inkscape:window-width="1920"
     inkscape:window-height="1011"
     inkscape:window-x="0"
     inkscape:window-y="32"
     inkscape:window-maximized="1"
     inkscape:current-layer="layer1" />
  <defs
     id="defs1">
    <rect
       x="168.71811"
       y="285.05197"
       width="168.71811"
       height="237.42992"
       id="rect1" />
  </defs>
  <g
     inkscape:label="Layer 1"
     inkscape:groupmode="layer"
     id="layer1"
     transform="translate(-57.502647,-74.877353)">
    <path
       style="font-style:italic;font-weight:bold;font-size:18.6667px;line-height:0.5;font-family:'M PLUS 1p';-inkscape-font-specification:'M PLUS 1p Bold';white-space:pre;fill:#ffffff;fill-opacity:1;stroke-width:57.092;stroke-linecap:round;stroke-linejoin:round"
       d="m 68.156332,110.80059 -0.424106,2.19938 h 25.941415 l 0.424106,-2.19938 z m 0.89171,-4.62434 h 25.941415 l 0.402359,-2.0866 H 69.450401 Z M 88.776025,92.190411 h 22.163015 l -0.98958,5.131891 H 57.502647 l 0.989581,-5.131891 h 22.163018 l 0.391482,-2.030195 h -18.38459 l 0.891711,-4.624342 h 18.38459 l 0.380605,-1.97379 H 62.017068 l 1.033081,-5.357478 h 20.301976 l 0.641594,-3.327253 H 92.1145 l -0.641596,3.327253 h 20.301976 l -1.03308,5.357478 H 90.439823 l -0.380605,1.97379 H 108.4438 l -0.8917,4.624342 H 89.167507 Z M 62.68132,99.126939 h 41.39349 l -3.65383,18.948511 q -0.56548,2.93252 -1.052148,4.28598 -0.441044,1.40987 -1.63013,2.31215 -1.189095,0.90232 -2.744361,1.07151 -1.498865,0.16918 -4.769744,0.16918 -2.424965,0 -8.404821,-0.28187 l 0.972645,-5.92143 q 6.261817,0.28187 7.671684,0.28187 1.409868,0 1.668049,-0.16918 0.258301,-0.16919 0.464919,-1.24069 l 0.184864,-0.95869 H 66.840522 l -1.609427,8.34636 h -7.726039 z m 60.52639,-4.173198 -2.75126,14.267799 q 6.55011,-3.55284 11.28955,-7.95163 l 3.55055,4.39879 q -2.56508,2.48134 -5.24697,4.39875 2.93454,0.28187 4.3444,0.28187 0.67673,0 1.10006,-0.73313 0.75566,-1.57902 3.96616,-14.718913 h -1.86101 q -0.12175,0.338365 -0.3758,1.071471 -0.19788,0.733136 -0.31931,1.071502 l -4.15145,-0.112688 q 0.62844,1.127876 1.02924,1.97379 l -5.97325,3.778428 q -2.06054,-4.229572 -4.60078,-7.726039 z m 31.46569,16.974719 -5.02946,3.27088 q -2.62852,-4.79352 -6.25318,-8.51555 -0.93434,3.38366 -1.69893,5.30108 -0.76448,1.91738 -1.78438,2.8197 -0.96354,0.90232 -1.79655,1.12791 -0.82217,0.16918 -2.4576,0.16918 -3.49646,0 -7.66077,-0.33839 l 0.81164,-4.7935 q -3.26559,2.31216 -6.90617,4.22957 l -1.95255,-3.32728 -1.08744,5.63944 h 34.73892 z m 3.51248,-18.215373 q -4.59399,4.229572 -9.74918,7.274863 l -2.77671,-3.440061 q -0.0979,0.507549 -1.75406,7.049311 l 4.2875,-2.93252 q 4.00852,3.77843 6.83884,8.40277 z m -40.42056,-10.602147 1.19621,-6.203393 h 50.191 l -1.19621,6.203393 h -26.50537 q -1.34488,4.34235 -1.91843,6.146988 h 8.06438 q -0.29573,1.240654 -0.81077,3.327253 -0.45886,2.086599 -0.6111,2.876109 5.35494,-3.496436 9.19813,-7.049277 l 3.21495,3.214475 0.47849,-2.481369 h 6.99293 l -7.10107,36.825551 h -6.99293 l 0.50023,-2.59414 h -34.73893 l -0.50023,2.59414 h -6.9929 l 7.10107,-36.825551 h 6.9929 l -0.44586,2.312186 3.63654,-2.481369 q 1.98115,2.594148 3.53287,5.075517 2.13114,-6.372576 3.51952,-10.940513 z"
       id="text1"
       aria-label="青函" />
  </g>
</svg>
