<?xml version="1.0" encoding="UTF-8" standalone="no"?>
<!-- Created with Inkscape (http://www.inkscape.org/) -->

<svg
   width="99.118858mm"
   height="6.2015138mm"
   viewBox="0 0 99.118859 6.2015138"
   version="1.1"
   id="svg1"
   inkscape:export-filename="seikan.png"
   inkscape:export-xdpi="96"
   inkscape:export-ydpi="96"
   inkscape:version="1.4 (1:1.4+202410161351+e7c3feb100)"
   sodipodi:docname="seikan-text.svg"
   xmlns:inkscape="http://www.inkscape.org/namespaces/inkscape"
   xmlns:sodipodi="http://sodipodi.sourceforge.net/DTD/sodipodi-0.dtd"
   xmlns="http://www.w3.org/2000/svg"
   xmlns:svg="http://www.w3.org/2000/svg">
  <sodipodi:namedview
     id="namedview1"
     pagecolor="#505050"
     bordercolor="#ffffff"
     borderopacity="1"
     inkscape:showpageshadow="0"
     inkscape:pageopacity="0"
     inkscape:pagecheckerboard="1"
     inkscape:deskcolor="#505050"
     inkscape:document-units="mm"
     inkscape:zoom="1.0393815"
     inkscape:cx="68.790911"
     inkscape:cy="-162.11564"
     inkscape:window-width="1920"
     inkscape:window-height="1011"
     inkscape:window-x="0"
     inkscape:window-y="32"
     inkscape:window-maximized="1"
     inkscape:current-layer="layer1" />
  <defs
     id="defs1">
    <rect
       x="168.71811"
       y="285.05197"
       width="168.71811"
       height="237.42992"
       id="rect1" />
  </defs>
  <g
     inkscape:label="Layer 1"
     inkscape:groupmode="layer"
     id="layer1"
     transform="translate(-59.644541,-129.5457)">
    <path
       style="font-weight:bold;font-size:10.5184px;line-height:0.5;font-family:'Arial Rounded MT Bold';-inkscape-font-specification:'Arial Rounded MT Bold, ';letter-spacing:7.9375px;fill:#ffffff;fill-opacity:1;stroke-width:10.6486;stroke-linecap:round;stroke-linejoin:round"
       d="m 53.489306,168.04478 q 0,0.68308 -0.35438,1.22749 -0.349244,0.54441 -1.027188,0.85257 -0.677943,0.30815 -1.607548,0.30815 -1.114498,0 -1.838666,-0.42114 -0.513593,-0.30302 -0.837157,-0.80634 -0.318429,-0.50846 -0.318429,-0.9861 0,-0.27735 0.19003,-0.47251 0.195166,-0.2003 0.49305,-0.2003 0.241389,0 0.405739,0.15408 0.169486,0.15407 0.287613,0.45709 0.143806,0.35952 0.308156,0.60091 0.169486,0.24139 0.472506,0.4006 0.303021,0.15408 0.796071,0.15408 0.677943,0 1.09909,-0.31329 0.426283,-0.31843 0.426283,-0.79094 0,-0.37492 -0.231117,-0.60604 -0.225981,-0.23625 -0.590633,-0.35951 -0.359516,-0.12327 -0.965556,-0.26194 -0.811478,-0.19003 -1.361024,-0.44169 -0.544409,-0.25679 -0.867973,-0.69335 -0.318428,-0.44169 -0.318428,-1.09395 0,-0.62145 0.338972,-1.10423 0.338971,-0.48278 0.980964,-0.73957 0.641992,-0.26194 1.509965,-0.26194 0.693352,0 1.196674,0.17462 0.508458,0.16949 0.842294,0.4571 0.333835,0.28248 0.487914,0.59577 0.154078,0.31329 0.154078,0.61118 0,0.2722 -0.195166,0.49305 -0.19003,0.21571 -0.477642,0.21571 -0.261933,0 -0.400603,-0.1284 -0.133535,-0.13353 -0.292749,-0.43142 -0.205437,-0.42628 -0.49305,-0.66254 -0.287612,-0.24138 -0.924468,-0.24138 -0.590633,0 -0.955285,0.26193 -0.359515,0.2568 -0.359515,0.62145 0,0.22598 0.123262,0.39033 0.123263,0.16435 0.338972,0.28247 0.215709,0.11813 0.436555,0.1849 0.220845,0.0668 0.729303,0.19516 0.636856,0.14895 1.15045,0.3287 0.518729,0.17976 0.878245,0.43656 0.364652,0.2568 0.564953,0.65226 0.205438,0.39033 0.205438,0.96042 z m 14.193072,-4.09334 h -3.435943 v 1.84894 h 3.163738 q 0.349244,0 0.51873,0.15921 0.174622,0.15408 0.174622,0.41088 0,0.25679 -0.169486,0.42114 -0.169486,0.15922 -0.523866,0.15922 h -3.163738 v 2.14168 h 3.554069 q 0.359516,0 0.539274,0.16949 0.184894,0.16435 0.184894,0.44169 0,0.26707 -0.184894,0.43656 -0.179758,0.16435 -0.539274,0.16435 h -4.144701 q -0.498186,0 -0.719032,-0.22085 -0.215709,-0.22084 -0.215709,-0.71389 v -5.65981 q 0,-0.3287 0.09758,-0.53414 0.09758,-0.21057 0.30302,-0.30302 0.210574,-0.0976 0.534138,-0.0976 h 4.026575 q 0.364651,0 0.539273,0.16435 0.179758,0.15922 0.179758,0.42115 0,0.26707 -0.179758,0.43142 -0.174622,0.15921 -0.539273,0.15921 z m 10.053506,5.55195 v -5.93201 q 0,-0.46223 0.210574,-0.69335 0.210573,-0.23112 0.544409,-0.23112 0.344108,0 0.554681,0.23112 0.21571,0.22598 0.21571,0.69335 v 5.93201 q 0,0.46737 -0.21571,0.69849 -0.210573,0.23111 -0.554681,0.23111 -0.3287,0 -0.544409,-0.23111 -0.210574,-0.23626 -0.210574,-0.69849 z m 12.703649,-5.93201 v 2.63987 l 2.994252,-3.12265 q 0.215709,-0.22598 0.364652,-0.33383 0.154078,-0.10786 0.405739,-0.10786 0.3287,0 0.529001,0.19517 0.205438,0.19003 0.205438,0.46737 0,0.33383 -0.344108,0.66253 l -1.854074,1.7565 2.13655,3.06101 q 0.225982,0.31843 0.338972,0.55982 0.112991,0.23625 0.112991,0.46224 0,0.25166 -0.200302,0.43655 -0.195165,0.18489 -0.534137,0.18489 -0.318428,0 -0.51873,-0.13353 -0.200301,-0.13867 -0.338972,-0.36465 -0.13867,-0.22598 -0.246525,-0.41088 l -1.802714,-2.7734 -1.248033,1.19667 v 1.55619 q 0,0.47251 -0.215709,0.70362 -0.215709,0.22598 -0.554681,0.22598 -0.195166,0 -0.374924,-0.10271 -0.179757,-0.10272 -0.27734,-0.27734 -0.0719,-0.14381 -0.08731,-0.33384 -0.01541,-0.19003 -0.01541,-0.54955 v -5.59817 q 0,-0.46223 0.200302,-0.69335 0.205437,-0.23112 0.554681,-0.23112 0.344108,0 0.554681,0.23112 0.215709,0.22598 0.215709,0.69335 z m 19.005447,5.88065 -0.35951,-0.94501 h -3.06102 l -0.35952,0.96555 q -0.21057,0.56496 -0.35951,0.76526 -0.14895,0.19516 -0.48792,0.19516 -0.28761,0 -0.50846,-0.21057 -0.22084,-0.21057 -0.22084,-0.47764 0,-0.15408 0.0514,-0.31843 0.0514,-0.16435 0.16948,-0.4571 l 1.92598,-4.88941 q 0.0822,-0.21057 0.19517,-0.50332 0.11812,-0.29789 0.24652,-0.49305 0.13353,-0.19517 0.34411,-0.31329 0.21571,-0.12327 0.529,-0.12327 0.31843,0 0.529,0.12327 0.21571,0.11812 0.34411,0.30815 0.13353,0.19003 0.22084,0.41088 0.0924,0.21571 0.23112,0.58036 l 1.96707,4.85859 q 0.23111,0.55469 0.23111,0.80635 0,0.26193 -0.22084,0.48278 -0.21571,0.2157 -0.52387,0.2157 -0.17976,0 -0.30815,-0.0668 -0.1284,-0.0616 -0.21571,-0.16949 -0.0873,-0.11299 -0.19003,-0.33897 -0.0976,-0.23112 -0.16949,-0.40574 z m -3.01993,-2.09033 h 2.24954 l -1.13504,-3.10724 z m 15.69276,-3.80059 2.93262,4.43745 v -4.47854 q 0,-0.43655 0.1849,-0.65226 0.19003,-0.22085 0.50846,-0.22085 0.3287,0 0.51873,0.22085 0.19003,0.21571 0.19003,0.65226 v 5.92174 q 0,0.99123 -0.82175,0.99123 -0.20544,0 -0.36979,-0.0616 -0.16435,-0.0565 -0.30816,-0.18489 -0.1438,-0.1284 -0.26707,-0.29788 -0.12326,-0.17463 -0.24652,-0.35438 l -2.86072,-4.3861 v 4.41177 q 0,0.43142 -0.2003,0.65227 -0.2003,0.22084 -0.51359,0.22084 -0.32357,0 -0.51873,-0.22084 -0.19517,-0.22598 -0.19517,-0.65227 v -5.80874 q 0,-0.36979 0.0822,-0.58036 0.0976,-0.23112 0.32356,-0.37492 0.22598,-0.14895 0.48791,-0.14895 0.20544,0 0.34925,0.0668 0.14894,0.0668 0.25679,0.17976 0.11299,0.11299 0.22599,0.29275 0.11812,0.17975 0.24138,0.37492 z"
       id="text99"
       transform="scale(1.2555176,0.79648425)"
       aria-label="SEIKAN" />
  </g>
</svg>
