<?xml version="1.0" encoding="UTF-8" standalone="no"?>
<!-- Created with Inkscape (http://www.inkscape.org/) -->

<svg
   width="99.119003mm"
   height="6.20152mm"
   viewBox="0 0 99.118999 6.20152"
   version="1.1"
   id="svg1"
   inkscape:export-filename="seikan.png"
   inkscape:export-xdpi="96"
   inkscape:export-ydpi="96"
   inkscape:version="1.4 (1:1.4+202410161351+e7c3feb100)"
   sodipodi:docname="seikan-text.svg"
   xmlns:inkscape="http://www.inkscape.org/namespaces/inkscape"
   xmlns:sodipodi="http://sodipodi.sourceforge.net/DTD/sodipodi-0.dtd"
   xmlns="http://www.w3.org/2000/svg"
   xmlns:svg="http://www.w3.org/2000/svg">
  <sodipodi:namedview
     id="namedview1"
     pagecolor="#505050"
     bordercolor="#ffffff"
     borderopacity="1"
     inkscape:showpageshadow="0"
     inkscape:pageopacity="0"
     inkscape:pagecheckerboard="1"
     inkscape:deskcolor="#505050"
     inkscape:document-units="mm"
     inkscape:zoom="1.4699074"
     inkscape:cx="99.666141"
     inkscape:cy="-113.95276"
     inkscape:window-width="1920"
     inkscape:window-height="1011"
     inkscape:window-x="0"
     inkscape:window-y="32"
     inkscape:window-maximized="1"
     inkscape:current-layer="layer1"
     showguides="false" />
  <defs
     id="defs1">
    <rect
       x="168.71811"
       y="285.05197"
       width="168.71811"
       height="237.42992"
       id="rect1" />
  </defs>
  <g
     inkscape:label="Layer 1"
     inkscape:groupmode="layer"
     id="layer1"
     transform="translate(-63.71325,-128.64568)">
    <path
       style="font-weight:bold;font-size:10.5184px;line-height:0.5;font-family:'Arial Rounded MT Bold';-inkscape-font-specification:'Arial Rounded MT Bold, ';letter-spacing:7.9375px;fill:#ffffff;fill-opacity:1;stroke-width:10.6486;stroke-linecap:round;stroke-linejoin:round"
       d="m 71.22548,132.94502 q 0,0.54406 -0.44493,0.97768 -0.43848,0.43361 -1.28965,0.67906 -0.85117,0.24543 -2.0183,0.24543 -1.39929,0 -2.30849,-0.33543 -0.64483,-0.24135 -1.05107,-0.64224 -0.39979,-0.40498 -0.39979,-0.78541 0,-0.2209 0.23859,-0.37635 0.24503,-0.15953 0.61903,-0.15953 0.30307,0 0.50941,0.12272 0.21279,0.12271 0.36111,0.36407 0.18055,0.28635 0.38689,0.47861 0.21279,0.19226 0.59324,0.31907 0.38045,0.12272 0.99949,0.12272 0.85117,0 1.37993,-0.24953 0.5352,-0.25362 0.5352,-0.62997 0,-0.29862 -0.29017,-0.4827 -0.28372,-0.18817 -0.74155,-0.28634 -0.45138,-0.0982 -1.21228,-0.20863 -1.01883,-0.15136 -1.70879,-0.3518 -0.68352,-0.20453 -1.08976,-0.55225 -0.39979,-0.35179 -0.39979,-0.87131 0,-0.49497 0.42559,-0.8795 0.42558,-0.38453 1.23161,-0.58906 0.80604,-0.20863 1.8958,-0.20863 0.87052,0 1.50245,0.13908 0.63838,0.135 1.05751,0.36408 0.41914,0.22499 0.61259,0.47452 0.19344,0.24953 0.19344,0.48679 0,0.21681 -0.24503,0.39271 -0.23859,0.17181 -0.59969,0.17181 -0.32886,0 -0.50296,-0.10227 -0.16766,-0.10635 -0.36755,-0.34362 -0.25793,-0.33952 -0.61904,-0.5277 -0.3611,-0.19226 -1.16068,-0.19226 -0.74156,0 -1.19939,0.20863 -0.45138,0.20453 -0.45138,0.49497 0,0.17999 0.15476,0.31089 0.15476,0.13091 0.42559,0.22499 0.27082,0.0941 0.5481,0.14727 0.27727,0.0532 0.91566,0.15544 0.79959,0.11864 1.44441,0.2618 0.65128,0.14318 1.10265,0.34772 0.45783,0.20453 0.70931,0.51951 0.25793,0.31089 0.25793,0.76496 z m 17.81969,-3.26028 h -4.3139 v 1.47265 h 3.97214 q 0.43848,0 0.65127,0.12681 0.21924,0.12272 0.21924,0.32726 0,0.20453 -0.21279,0.33543 -0.21279,0.12682 -0.65772,0.12682 h -3.97214 v 1.70581 h 4.4622 q 0.45138,0 0.67707,0.135 0.23214,0.1309 0.23214,0.3518 0,0.21271 -0.23214,0.34771 -0.22569,0.1309 -0.67707,0.1309 h -5.20375 q -0.62548,0 -0.90276,-0.1759 -0.27082,-0.1759 -0.27082,-0.5686 v -4.50795 q 0,-0.26181 0.12251,-0.42544 0.12251,-0.16771 0.38045,-0.24135 0.26438,-0.0777 0.67062,-0.0777 h 5.05544 q 0.45783,0 0.67707,0.13091 0.22569,0.12681 0.22569,0.33544 0,0.21271 -0.22569,0.34362 -0.21924,0.1268 -0.67707,0.1268 z m 12.62236,4.42204 v -4.72475 q 0,-0.36816 0.26438,-0.55224 0.26438,-0.18409 0.68351,-0.18409 0.43205,0 0.69643,0.18409 0.27082,0.17999 0.27082,0.55224 v 4.72475 q 0,0.37225 -0.27082,0.55634 -0.26438,0.18407 -0.69643,0.18407 -0.41268,0 -0.68351,-0.18407 -0.26438,-0.18818 -0.26438,-0.55634 z m 15.94969,-4.72475 v 2.10261 l 3.75933,-2.48714 q 0.27083,-0.17999 0.45783,-0.26589 0.19345,-0.0859 0.50941,-0.0859 0.41269,0 0.66417,0.15545 0.25793,0.15136 0.25793,0.37225 0,0.2659 -0.43203,0.5277 l -2.32782,1.39902 2.68247,2.43805 q 0.28373,0.25362 0.42559,0.44589 0.14186,0.18817 0.14186,0.36817 0,0.20044 -0.25148,0.3477 -0.24504,0.14726 -0.67062,0.14726 -0.39979,0 -0.65128,-0.10635 -0.25148,-0.11045 -0.42558,-0.29044 -0.1741,-0.17999 -0.30952,-0.32726 l -2.26334,-2.20897 -1.56692,0.95313 v 1.23948 q 0,0.37635 -0.27083,0.56042 -0.27083,0.17999 -0.69642,0.17999 -0.24504,0 -0.47073,-0.0818 -0.22568,-0.0818 -0.3482,-0.2209 -0.0903,-0.11454 -0.10962,-0.2659 -0.0194,-0.15136 -0.0194,-0.43771 v -4.45885 q 0,-0.36816 0.25148,-0.55224 0.25793,-0.18409 0.69642,-0.18409 0.43204,0 0.69642,0.18409 0.27082,0.17999 0.27082,0.55224 z m 23.8617,4.68384 -0.45137,-0.75268 h -3.84318 l -0.45138,0.76904 q -0.26438,0.44998 -0.45137,0.60952 -0.18701,0.15544 -0.61259,0.15544 -0.3611,0 -0.63838,-0.16771 -0.27727,-0.16772 -0.27727,-0.38044 0,-0.12272 0.0645,-0.25362 0.0645,-0.1309 0.21279,-0.36407 l 2.4181,-3.89434 q 0.1032,-0.16772 0.24504,-0.40089 0.1483,-0.23726 0.30951,-0.3927 0.16766,-0.15545 0.43204,-0.24954 0.27083,-0.0982 0.66417,-0.0982 0.3998,0 0.66417,0.0982 0.27083,0.0941 0.43204,0.24544 0.16765,0.15136 0.27727,0.32726 0.11601,0.17181 0.29017,0.46225 l 2.46969,3.86979 q 0.29016,0.4418 0.29016,0.64224 0,0.20863 -0.27726,0.38453 -0.27083,0.1718 -0.65773,0.1718 -0.22569,0 -0.38689,-0.0532 -0.16121,-0.0491 -0.27083,-0.135 -0.1096,-0.09 -0.23858,-0.26998 -0.12254,-0.18409 -0.2128,-0.32317 z m -3.79159,-1.66491 h 2.82435 l -1.42506,-2.47487 z m 19.70257,-3.02711 3.68197,3.53436 v -3.56709 q 0,-0.3477 0.23214,-0.51951 0.23859,-0.17591 0.63838,-0.17591 0.41269,0 0.65128,0.17591 0.23858,0.17181 0.23858,0.51951 v 4.71657 q 0,0.7895 -1.03172,0.7895 -0.25793,0 -0.46428,-0.0491 -0.20634,-0.045 -0.3869,-0.14726 -0.18054,-0.10227 -0.33531,-0.23726 -0.15475,-0.13909 -0.30951,-0.28226 l -3.59169,-3.49346 v 3.51391 q 0,0.34362 -0.25148,0.51952 -0.25148,0.1759 -0.64482,0.1759 -0.40625,0 -0.65128,-0.1759 -0.24504,-0.17999 -0.24504,-0.51952 v -4.62657 q 0,-0.29453 0.1032,-0.46225 0.12254,-0.18408 0.40624,-0.29862 0.28372,-0.11863 0.61258,-0.11863 0.25793,0 0.43849,0.0532 0.187,0.0532 0.3224,0.14318 0.14186,0.09 0.28374,0.23317 0.1483,0.14317 0.30305,0.29862 z"
       id="text99"
       aria-label="SEIKAN" />
  </g>
</svg>
