<?xml version="1.0" encoding="UTF-8" standalone="no"?>
<!-- Created with Inkscape (http://www.inkscape.org/) -->

<svg
   width="108.80466mm"
   height="60.127399mm"
   viewBox="0 0 108.80466 60.1274"
   version="1.1"
   id="svg1"
   inkscape:export-filename="seikan.png"
   inkscape:export-xdpi="96"
   inkscape:export-ydpi="96"
   inkscape:version="1.4 (1:1.4+202410161351+e7c3feb100)"
   sodipodi:docname="seikan.svg"
   xmlns:inkscape="http://www.inkscape.org/namespaces/inkscape"
   xmlns:sodipodi="http://sodipodi.sourceforge.net/DTD/sodipodi-0.dtd"
   xmlns="http://www.w3.org/2000/svg"
   xmlns:svg="http://www.w3.org/2000/svg">
  <sodipodi:namedview
     id="namedview1"
     pagecolor="#505050"
     bordercolor="#ffffff"
     borderopacity="1"
     inkscape:showpageshadow="0"
     inkscape:pageopacity="0"
     inkscape:pagecheckerboard="1"
     inkscape:deskcolor="#505050"
     inkscape:document-units="mm"
     inkscape:zoom="1.4699074"
     inkscape:cx="118.03465"
     inkscape:cy="90.141732"
     inkscape:window-width="1920"
     inkscape:window-height="1011"
     inkscape:window-x="0"
     inkscape:window-y="32"
     inkscape:window-maximized="1"
     inkscape:current-layer="layer1"
     showguides="false" />
  <defs
     id="defs1">
    <rect
       x="168.71811"
       y="285.05197"
       width="168.71811"
       height="237.42992"
       id="rect1" />
  </defs>
  <g
     inkscape:label="Layer 1"
     inkscape:groupmode="layer"
     id="layer1"
     transform="translate(-58.87025,-74.719802)">
    <path
       style="font-weight:bold;font-size:55.5585px;line-height:0.5;font-family:'Rounded Mplus 1c';-inkscape-font-specification:'Rounded Mplus 1c Medium';letter-spacing:0px;fill:#ffffff;stroke-width:56.2457;stroke-linecap:round;stroke-linejoin:round"
       d="m 80.861436,96.109824 q -0.888936,0 -1.555638,-0.611143 -0.666702,-0.666702 -0.666702,-1.611197 0,-0.944494 0.666702,-1.555638 0.666702,-0.666702 1.555638,-0.666702 h 19.667704 q 0.44447,0 0.44447,-0.500026 v -1.388963 q 0,-0.500026 -0.44447,-0.500026 H 84.639413 q -0.888936,0 -1.500079,-0.555585 -0.611144,-0.611144 -0.611144,-1.50008 0,-0.888936 0.611144,-1.500079 0.611143,-0.611143 1.500079,-0.611143 h 15.889727 q 0.44447,0 0.44447,-0.444468 v -1.444521 q 0,-0.444468 -0.44447,-0.444468 H 82.861541 q -0.944494,0 -1.611196,-0.666702 -0.666702,-0.666702 -0.666702,-1.611197 0,-0.944494 0.666702,-1.611196 0.666702,-0.722261 1.611196,-0.722261 h 17.667599 q 0.44447,0 0.44447,-0.444468 0,-1.222287 0.88894,-2.111223 0.88893,-0.888936 2.16678,-0.888936 h 0.33335 q 1.27785,0 2.16678,0.888936 0.88894,0.888936 0.88894,2.111223 0,0.444468 0.44447,0.444468 h 17.6676 q 0.94449,0 1.61119,0.722261 0.66671,0.666702 0.66671,1.611196 0,0.944495 -0.66671,1.611197 -0.6667,0.666702 -1.61119,0.666702 h -17.6676 q -0.44447,0 -0.44447,0.444468 v 1.444521 q 0,0.444468 0.44447,0.444468 h 15.88973 q 0.88893,0 1.50008,0.611143 0.61114,0.611143 0.61114,1.500079 0,0.888936 -0.61114,1.50008 -0.61115,0.555585 -1.50008,0.555585 h -15.88973 q -0.44447,0 -0.44447,0.500026 v 1.388963 q 0,0.500026 0.44447,0.500026 h 19.6677 q 0.88894,0 1.55564,0.666702 0.6667,0.611144 0.6667,1.555638 0,0.944495 -0.6667,1.611197 -0.6667,0.611143 -1.55564,0.611143 z m 34.890734,23.334566 q 1.66676,0 1.94455,-0.16667 0.27779,-0.22224 0.27779,-1.38896 v -0.88894 q 0,-0.50003 -0.50002,-0.50003 H 90.917524 q -0.500027,0 -0.500027,0.50003 v 4.50024 q 0,1.27784 -0.888936,2.16678 -0.888936,0.88894 -2.111223,0.88894 -1.277845,0 -2.22234,-0.9445 -0.888936,-0.88894 -0.888936,-2.11122 v -20.16774 q 0,-1.27784 0.944495,-2.222337 0.944494,-0.944494 2.22234,-0.944494 h 33.446213 q 1.27785,0 2.22234,0.944494 0.9445,0.944497 0.9445,2.222337 v 16.55644 q 0,4.50023 -1.22229,5.50029 -1.22229,1.05561 -6.44479,1.05561 -1.22228,0 -5.66696,-0.16668 -1.05561,-0.0556 -1.83343,-0.83337 -0.72226,-0.72227 -0.77782,-1.77788 -0.0556,-1.00005 0.6667,-1.72231 0.77782,-0.72226 1.77787,-0.6667 3.66686,0.16667 5.16694,0.16667 z M 90.417497,103.27687 v 1.55564 q 0,0.44447 0.500027,0.44447 h 26.556966 q 0.50002,0 0.50002,-0.44447 v -1.55564 q 0,-0.50003 -0.50002,-0.50003 H 90.917524 q -0.500027,0 -0.500027,0.50003 z m 27.056993,8.94492 q 0.50002,0 0.50002,-0.50003 v -1.66675 q 0,-0.50003 -0.50002,-0.50003 H 90.917524 q -0.500027,0 -0.500027,0.50003 v 1.66675 q 0,0.50003 0.500027,0.50003 z M 137.8089,81.942407 q -1.05562,0 -1.77788,-0.72226 -0.72226,-0.722261 -0.72226,-1.777872 0,-1.055612 0.72226,-1.777872 0.72226,-0.722261 1.77788,-0.722261 h 43.89121 q 1.05561,0 1.77787,0.722261 0.72226,0.72226 0.72226,1.777872 0,1.055611 -0.72226,1.777872 -0.72226,0.72226 -1.77787,0.72226 h -23.39013 q -0.44447,0 -0.55558,0.500027 -0.2778,2.22234 -0.77782,5.8892 -0.0556,0.166676 0.11112,0.277793 0.16667,0.111117 0.33335,0.111117 h 4.72247 q 1.27784,0 2.16678,0.944494 0.94449,0.944495 0.88894,2.22234 -0.0556,1.611197 -0.16668,3.389069 0,0.166675 0.11112,0.277792 0.16667,0.05556 0.27779,-0.05556 3.27795,-2.333457 6.33367,-5.278058 1.00005,-0.944494 2.22234,-1.000053 1.27784,-0.111117 2.2779,0.777819 l 1.05561,0.944495 q 0.0556,0.05556 0.11112,0 0.11111,-0.05556 0.11111,-0.111117 0,-0.888936 0.6667,-1.555638 0.66671,-0.666702 1.55564,-0.666702 h 0.61115 q 1.16672,0 2.0001,0.833377 0.83338,0.833378 0.83338,2.000106 v 30.446062 q 0,1.16673 -0.83338,2.0001 -0.83338,0.83338 -2.0001,0.83338 h -0.44447 q -1.00005,0 -1.72232,-0.72226 -0.6667,-0.6667 -0.6667,-1.66675 0,-0.38891 -0.38891,-0.38891 h -34.77962 q -0.38891,0 -0.38891,0.38891 0,1.00005 -0.72226,1.66675 -0.6667,0.72226 -1.66675,0.72226 h -0.44447 q -1.16673,0 -2.00011,-0.83338 -0.83337,-0.83337 -0.83337,-2.0001 V 91.44291 q 0,-1.166728 0.83337,-2.000106 0.83338,-0.833377 2.00011,-0.833377 h 0.72226 q 0.88894,0 1.50008,0.611143 0.61114,0.611144 0.61114,1.50008 0,0.222234 0.22224,0.111117 l 0.50002,-0.38891 q 1.05562,-0.833377 2.38902,-0.72226 1.38896,0.05556 2.2779,1.055611 1.05561,1.166729 2.77792,3.33351 0.11112,0.111117 0.22224,0.111117 0.11111,-0.05556 0.16667,-0.166675 0.9445,-5.722526 1.6112,-11.611726 0.11112,-0.500027 -0.38891,-0.500027 z m 27.11254,15.445263 q -0.16667,3.44463 -0.33335,6.00032 0,0.11111 0.11112,0.16667 0.16668,0.0556 0.22223,0 l 0.55559,-0.50002 q 1.05561,-0.9445 2.38901,-0.9445 1.33341,0 2.38902,0.88894 3.88909,3.27795 6.94481,7.2226 0.11112,0.11112 0.22224,0.11112 0.11111,-0.0556 0.11111,-0.16668 V 92.165171 q 0,-0.111117 -0.11111,-0.166676 -0.11112,-0.05556 -0.16668,0.05556 -2.44457,2.889042 -6.72258,6.222552 -1.11117,0.833377 -2.44457,0.72226 -1.33341,-0.166675 -2.2779,-1.166728 l -0.55559,-0.555585 q -0.0556,-0.111117 -0.22223,-0.05556 -0.11112,0.05556 -0.11112,0.166676 z m -8.72268,-3.72242 q -0.16668,0.944495 -0.88894,1.555638 -0.72226,0.555585 -1.66675,0.500027 l -1.83343,-0.111117 q -0.11112,0 -0.16668,0.166675 -0.0556,0.111117 0,0.222234 0,0.05556 0.0556,0.111117 0.0556,0.05556 0.11112,0.111117 0.6667,0.888936 0.44447,1.944548 -0.16668,1.055611 -1.05562,1.666755 -0.88893,0.611146 -1.94454,0.500026 -1.05561,-0.16668 -1.72232,-1.055611 -2.50013,-3.277952 -5.2225,-6.166994 -0.11111,-0.111117 -0.22223,-0.05556 -0.11112,0.05556 -0.11112,0.166675 v 16.11197 q 0,0.16667 0.11112,0.27779 0.16668,0.0556 0.27779,-0.0556 5.27806,-3.33351 9.05604,-7.33372 0.72226,-0.77782 1.72231,-0.83338 1.05561,-0.11112 1.83343,0.61115 0.77782,0.77781 0.83338,1.83343 0.11112,1.05561 -0.61114,1.83343 -3.38907,3.72242 -7.94487,6.88925 -1.11117,0.77782 -2.44457,0.61114 -1.27785,-0.22223 -2.11123,-1.3334 l -0.44446,-0.61114 q -0.0556,-0.11112 -0.16668,-0.0556 -0.11112,0.0556 -0.11112,0.16667 v 5.27806 q 0,0.44447 0.44447,0.44447 h 34.61295 q 0.50002,0 0.50002,-0.44447 v -4.94471 q 0,-0.11111 -0.16667,-0.16667 -0.11112,-0.0556 -0.22224,0 l -1.05561,0.83338 q -1.00005,0.77781 -2.33346,0.6667 -1.27784,-0.11112 -2.11122,-1.11117 -3.27795,-3.77798 -6.77813,-6.66702 -0.44447,-0.27779 -0.44447,0.16667 -0.2778,3.66686 -0.6667,5.72253 -0.33336,2.0001 -1.11117,2.9446 -0.72227,0.94449 -1.44453,1.16673 -0.72226,0.16667 -2.27789,0.16667 -2.38902,0 -5.2225,-0.22223 -0.9445,-0.11112 -1.6112,-0.77782 -0.6667,-0.6667 -0.72226,-1.66675 -0.0556,-0.9445 0.61114,-1.55564 0.66671,-0.61115 1.55564,-0.55559 3.00016,0.22224 3.55575,0.22224 0.72226,0 1.00005,-0.77782 0.50002,-1.55564 1.3334,-16.223086 0,-0.500027 -0.44447,-0.500027 h -2.38901 q -0.27779,0 -0.38891,0.333351 z"
       id="text1"
       transform="skewX(-11.793305)"
       aria-label="青函" />
    <path
       style="font-weight:bold;font-size:10.5184px;line-height:0.5;font-family:'Arial Rounded MT Bold';-inkscape-font-specification:'Arial Rounded MT Bold, ';letter-spacing:7.9375px;fill:#ffffff;fill-opacity:1;stroke-width:10.6486;stroke-linecap:round;stroke-linejoin:round"
       d="m 71.22548,132.94502 c 0,0.36271 -0.14831,0.6886 -0.44493,0.97768 -0.29232,0.28907 -0.722203,0.51543 -1.28965,0.67906 -0.567447,0.16362 -1.240213,0.24543 -2.0183,0.24543 -0.93286,0 -1.702357,-0.11181 -2.30849,-0.33543 -0.429887,-0.1609 -0.780243,-0.37498 -1.05107,-0.64224 -0.266527,-0.26999 -0.39979,-0.53179 -0.39979,-0.78541 0,-0.14727 0.07953,-0.27272 0.23859,-0.37635 0.163353,-0.10635 0.369697,-0.15953 0.61903,-0.15953 0.202047,0 0.37185,0.0409 0.50941,0.12272 0.14186,0.0818 0.26223,0.20316 0.36111,0.36407 0.120367,0.1909 0.24933,0.35044 0.38689,0.47861 0.14186,0.12817 0.339607,0.23453 0.59324,0.31907 0.253633,0.0818 0.586797,0.12272 0.99949,0.12272 0.567447,0 1.027423,-0.0832 1.37993,-0.24953 0.3568,-0.16908 0.5352,-0.37907 0.5352,-0.62997 0,-0.19908 -0.09672,-0.35998 -0.29017,-0.4827 -0.189147,-0.12545 -0.43633,-0.22089 -0.74155,-0.28634 -0.30092,-0.0655 -0.705013,-0.13501 -1.21228,-0.20863 -0.67922,-0.10091 -1.248817,-0.21817 -1.70879,-0.3518 -0.45568,-0.13635 -0.818933,-0.32044 -1.08976,-0.55225 -0.266527,-0.23453 -0.39979,-0.52496 -0.39979,-0.87131 0,-0.32998 0.141863,-0.62315 0.42559,-0.8795 0.28372,-0.25635 0.694257,-0.45271 1.23161,-0.58906 0.53736,-0.13909 1.169293,-0.20863 1.8958,-0.20863 0.580347,0 1.081163,0.0464 1.50245,0.13908 0.425587,0.09 0.77809,0.21136 1.05751,0.36408 0.279427,0.14999 0.483623,0.30817 0.61259,0.47452 0.12896,0.16635 0.19344,0.32862 0.19344,0.48679 0,0.14454 -0.08168,0.27544 -0.24503,0.39271 -0.15906,0.11454 -0.358957,0.17181 -0.59969,0.17181 -0.21924,0 -0.386893,-0.0341 -0.50296,-0.10227 -0.111773,-0.0709 -0.23429,-0.18544 -0.36755,-0.34362 -0.171953,-0.22635 -0.3783,-0.40225 -0.61904,-0.5277 -0.240733,-0.12817 -0.627627,-0.19226 -1.16068,-0.19226 -0.494373,0 -0.89417,0.0695 -1.19939,0.20863 -0.30092,0.13635 -0.45138,0.30134 -0.45138,0.49497 0,0.11999 0.05159,0.22362 0.15476,0.31089 0.103173,0.0873 0.245037,0.16227 0.42559,0.22499 0.180547,0.0627 0.363247,0.11182 0.5481,0.14727 0.184847,0.0355 0.490067,0.0873 0.91566,0.15544 0.53306,0.0791 1.01453,0.16636 1.44441,0.2618 0.434187,0.0954 0.801737,0.21136 1.10265,0.34772 0.30522,0.13635 0.541657,0.30952 0.70931,0.51951 0.171953,0.20726 0.25793,0.46225 0.25793,0.76496 z m 17.81969,-3.26028 h -4.3139 v 1.47265 h 3.97214 c 0.29232,0 0.50941,0.0423 0.65127,0.12681 0.14616,0.0818 0.21924,0.1909 0.21924,0.32726 0,0.13635 -0.07093,0.24816 -0.21279,0.33543 -0.14186,0.0846 -0.3611,0.12682 -0.65772,0.12682 h -3.97214 v 1.70581 h 4.4622 c 0.30092,0 0.52661,0.045 0.67707,0.135 0.15476,0.0873 0.23214,0.20453 0.23214,0.3518 0,0.14181 -0.07738,0.25771 -0.23214,0.34771 -0.15046,0.0873 -0.37615,0.1309 -0.67707,0.1309 h -5.20375 c -0.416987,0 -0.717907,-0.0586 -0.90276,-0.1759 -0.180547,-0.11727 -0.27082,-0.3068 -0.27082,-0.5686 v -4.50795 c 0,-0.17454 0.04084,-0.31635 0.12251,-0.42544 0.08167,-0.11181 0.20849,-0.19226 0.38045,-0.24135 0.176253,-0.0518 0.399793,-0.0777 0.67062,-0.0777 h 5.05544 c 0.30522,0 0.53091,0.0436 0.67707,0.13091 0.15046,0.0845 0.22569,0.19635 0.22569,0.33544 0,0.14181 -0.07523,0.25635 -0.22569,0.34362 -0.14616,0.0845 -0.37185,0.1268 -0.67707,0.1268 z m 12.62236,4.42204 v -4.72475 c 0,-0.24544 0.0881,-0.42952 0.26438,-0.55224 0.17625,-0.12273 0.40409,-0.18409 0.68351,-0.18409 0.28803,0 0.52018,0.0614 0.69643,0.18409 0.18055,0.11999 0.27082,0.30407 0.27082,0.55224 v 4.72475 c 0,0.24817 -0.0903,0.43361 -0.27082,0.55634 -0.17625,0.12271 -0.4084,0.18407 -0.69643,0.18407 -0.27512,0 -0.50296,-0.0614 -0.68351,-0.18407 -0.17625,-0.12545 -0.26438,-0.3109 -0.26438,-0.55634 z m 15.94969,-4.72475 v 2.10261 l 3.75933,-2.48714 c 0.18055,-0.11999 0.33316,-0.20862 0.45783,-0.26589 0.12897,-0.0573 0.29877,-0.0859 0.50941,-0.0859 0.27513,0 0.49652,0.0518 0.66417,0.15545 0.17195,0.10091 0.25793,0.22499 0.25793,0.37225 0,0.17727 -0.14401,0.35317 -0.43203,0.5277 l -2.32782,1.39902 2.68247,2.43805 c 0.18915,0.16908 0.33102,0.31771 0.42559,0.44589 0.0946,0.12545 0.14186,0.24817 0.14186,0.36817 0,0.13363 -0.0838,0.24953 -0.25148,0.3477 -0.16336,0.0982 -0.3869,0.14726 -0.67062,0.14726 -0.26653,0 -0.48362,-0.0354 -0.65128,-0.10635 -0.16765,-0.0736 -0.30951,-0.17045 -0.42558,-0.29044 -0.11607,-0.11999 -0.21924,-0.22908 -0.30952,-0.32726 l -2.26334,-2.20897 -1.56692,0.95313 v 1.23948 c 0,0.2509 -0.0903,0.43771 -0.27083,0.56042 -0.18055,0.11999 -0.41269,0.17999 -0.69642,0.17999 -0.16336,0 -0.32027,-0.0273 -0.47073,-0.0818 -0.15045,-0.0545 -0.26652,-0.12817 -0.3482,-0.2209 -0.0602,-0.0764 -0.0967,-0.16499 -0.10962,-0.2659 -0.0129,-0.10091 -0.0194,-0.24681 -0.0194,-0.43771 v -4.45885 c 0,-0.24544 0.0838,-0.42952 0.25148,-0.55224 0.17195,-0.12273 0.40409,-0.18409 0.69642,-0.18409 0.28803,0 0.52017,0.0614 0.69642,0.18409 0.18055,0.11999 0.27082,0.30407 0.27082,0.55224 z m 23.8617,4.68384 -0.45137,-0.75268 h -3.84318 l -0.45138,0.76904 c -0.17625,0.29999 -0.32671,0.50316 -0.45137,0.60952 -0.12467,0.10363 -0.32887,0.15544 -0.61259,0.15544 -0.24073,0 -0.45353,-0.0559 -0.63838,-0.16771 -0.18485,-0.11181 -0.27727,-0.23863 -0.27727,-0.38044 0,-0.0818 0.0215,-0.16635 0.0645,-0.25362 0.043,-0.0873 0.11393,-0.20862 0.21279,-0.36407 l 2.4181,-3.89434 c 0.0688,-0.11181 0.15048,-0.24544 0.24504,-0.40089 0.0989,-0.15817 0.20204,-0.28907 0.30951,-0.3927 0.11177,-0.10363 0.25579,-0.18681 0.43204,-0.24954 0.18055,-0.0655 0.40194,-0.0982 0.66417,-0.0982 0.26653,0 0.48792,0.0327 0.66417,0.0982 0.18055,0.0627 0.32457,0.14455 0.43204,0.24544 0.11177,0.10091 0.20419,0.20999 0.27727,0.32726 0.0773,0.11454 0.17406,0.26862 0.29017,0.46225 l 2.46969,3.86979 c 0.19344,0.29453 0.29016,0.50861 0.29016,0.64224 0,0.13909 -0.0924,0.26726 -0.27726,0.38453 -0.18055,0.11453 -0.3998,0.1718 -0.65773,0.1718 -0.15046,0 -0.27942,-0.0177 -0.38689,-0.0532 -0.10747,-0.0327 -0.19775,-0.0777 -0.27083,-0.135 -0.0731,-0.06 -0.15259,-0.14999 -0.23858,-0.26998 -0.0817,-0.12273 -0.15263,-0.23045 -0.2128,-0.32317 z m -3.79159,-1.66491 h 2.82435 l -1.42506,-2.47487 z m 19.70257,-3.02711 3.68197,3.53436 v -3.56709 c 0,-0.2318 0.0774,-0.40497 0.23214,-0.51951 0.15906,-0.11727 0.37185,-0.17591 0.63838,-0.17591 0.27513,0 0.49222,0.0586 0.65128,0.17591 0.15905,0.11454 0.23858,0.28771 0.23858,0.51951 v 4.71657 c 0,0.52633 -0.34391,0.7895 -1.03172,0.7895 -0.17195,0 -0.32671,-0.0164 -0.46428,-0.0491 -0.13756,-0.03 -0.26653,-0.0791 -0.3869,-0.14726 -0.12036,-0.0682 -0.23213,-0.14727 -0.33531,-0.23726 -0.10317,-0.0927 -0.20634,-0.18681 -0.30951,-0.28226 l -3.59169,-3.49346 v 3.51391 c 0,0.22908 -0.0838,0.40225 -0.25148,0.51952 -0.16765,0.11727 -0.38259,0.1759 -0.64482,0.1759 -0.27083,0 -0.48793,-0.0586 -0.65128,-0.1759 -0.16336,-0.11999 -0.24504,-0.29317 -0.24504,-0.51952 v -4.62657 c 0,-0.19635 0.0344,-0.35044 0.1032,-0.46225 0.0817,-0.12272 0.21711,-0.22226 0.40624,-0.29862 0.18915,-0.0791 0.39334,-0.11863 0.61258,-0.11863 0.17195,0 0.31812,0.0177 0.43849,0.0532 0.12467,0.0355 0.23213,0.0832 0.3224,0.14318 0.0946,0.06 0.18915,0.13772 0.28374,0.23317 0.0989,0.0954 0.19988,0.19499 0.30305,0.29862 z"
       id="text99"
       aria-label="SEIKAN"
       sodipodi:nodetypes="sccsccscsccccscscccccsscsccsscscccscssccccccscccscscsccscscsscssccsscscccsssscsscscsccccscsccccscscscccscssccsscsccccccccsssscccccscccccssscccccccccccscscssscscccssscssccsccccc" />
  </g>
</svg>
